<svg width="50" height="48" viewBox="0 0 50 48" fill="none" xmlns="http://www.w3.org/2000/svg">
<g clip-path="url(#clip0_3394_970)">
<path d="M40.9959 0H8.16391C3.65726 0 0.00390625 3.65336 0.00390625 8.16V39.7632C0.00390625 44.2698 3.65726 47.9232 8.16391 47.9232H40.9959C45.5025 47.9232 49.1559 44.2698 49.1559 39.7632V8.16C49.1559 3.65336 45.5025 0 40.9959 0Z" fill="#00005B"/>
<path d="M19.75 28.6719H12.1332L10.5834 33.4951C10.5635 33.5778 10.517 33.6516 10.4511 33.7053C10.3851 33.7589 10.3033 33.7895 10.2184 33.7921L6.32998 33.7919C6.10982 33.7919 6.03289 33.671 6.09919 33.429L12.6938 14.5153L12.7597 14.3166L12.7816 14.2486L12.8257 14.1065C12.8476 14.0332 12.8695 13.9554 12.8916 13.8712C12.978 13.4313 13.0221 12.9841 13.0235 12.5358C13.019 12.5044 13.0219 12.4725 13.0319 12.4425C13.042 12.4124 13.0588 12.3851 13.0812 12.3628C13.1036 12.3404 13.1309 12.3235 13.1609 12.3135C13.191 12.3035 13.2229 12.3006 13.2543 12.305H18.497C18.6506 12.305 18.7386 12.36 18.7608 12.4699L26.2456 33.4623C26.3115 33.6822 26.2456 33.792 26.0478 33.7919H21.7612C21.6876 33.8 21.6136 33.781 21.553 33.7385C21.4923 33.6961 21.4492 33.633 21.4315 33.5611L19.75 28.6719ZM13.3203 24.6051H18.53L18.4557 24.3599L18.3365 23.9717L18.162 23.4157L17.8269 22.366L17.5078 21.3572L16.9142 19.4777C16.7501 18.9589 16.5927 18.4381 16.4418 17.9152L16.2733 17.3208L16.0913 16.6694L15.925 16.0651H15.892C15.7269 16.8566 15.526 17.6401 15.2898 18.4133L15.0671 19.1281L14.5314 20.8561L14.26 21.7364C14.2109 21.8954 14.162 22.0526 14.1131 22.208L13.9672 22.6684L13.822 23.1181L13.6776 23.5566L13.534 23.9842C13.4625 24.1954 13.3912 24.4024 13.3203 24.6051ZM38.3798 26.7947H31.8842C31.9636 27.4373 32.1771 28.0562 32.5107 28.6112C32.8794 29.1608 33.4009 29.5907 34.0108 29.8477C34.8374 30.2056 35.7316 30.3808 36.6322 30.3615C37.3467 30.3476 38.0585 30.2695 38.759 30.128C39.3854 30.0435 39.9994 29.8835 40.5874 29.6514C40.6973 29.5638 40.7524 29.6187 40.7525 29.8162V32.9487C40.7579 33.0341 40.7408 33.1193 40.7028 33.196C40.6651 33.2559 40.6145 33.3065 40.5546 33.3444C39.9022 33.6333 39.2157 33.8378 38.5117 33.953C37.5552 34.1326 36.5831 34.2154 35.61 34.2001C34.0978 34.2001 32.8231 33.9732 31.7859 33.5195L31.6861 33.4747C30.6889 33.0356 29.8083 32.3694 29.1144 31.5294C28.4662 30.7379 27.984 29.824 27.6965 28.8422C27.412 27.873 27.2678 26.8681 27.2682 25.8581C27.265 24.7552 27.4375 23.6589 27.7793 22.6102C28.1083 21.5874 28.6285 20.6363 29.3124 19.8076C29.9871 18.9887 30.8306 18.3251 31.7853 17.8621C32.7524 17.3897 33.8956 17.2202 35.2145 17.2202C36.3083 17.1928 37.3947 17.4067 38.3965 17.8467C39.2387 18.2059 39.9802 18.7659 40.5561 19.4777C41.0965 20.1747 41.5095 20.9616 41.7761 21.8023C42.0357 22.6124 42.1692 23.4576 42.1718 24.3083C42.1718 24.7921 42.1553 25.2318 42.1224 25.6273L42.093 25.966L42.0623 26.2874L42.0441 26.4502L42.0399 26.4846C42.0313 26.5573 41.9964 26.6243 41.9417 26.6729C41.887 26.7215 41.8164 26.7484 41.7432 26.7484L41.6528 26.7503L41.5401 26.7561L41.4523 26.7624L41.2473 26.7799L41.0672 26.7977C41.0182 26.8029 40.9673 26.8077 40.9146 26.8121L40.7512 26.825L40.5766 26.8365L40.3914 26.8461L40.1951 26.8544L40.0928 26.8578L39.8802 26.8636C39.67 26.8688 39.4546 26.8557 39.2336 26.8396L38.8984 26.815C38.7258 26.8024 38.5527 26.7956 38.3798 26.7947ZM31.8844 23.7908H36.3745L36.757 23.7883L37.017 23.7847L37.1853 23.7808L37.3743 23.7743C37.5434 23.7574 37.7066 23.7033 37.8523 23.6159V23.4182C37.8459 23.1603 37.8015 22.9047 37.7206 22.6598C37.5428 22.0972 37.1851 21.6086 36.7026 21.269C36.2201 20.9295 35.6395 20.7577 35.0499 20.7801C34.495 20.7466 33.9423 20.8753 33.4592 21.1505C32.9762 21.4256 32.5836 21.8355 32.3295 22.3299C32.1035 22.7898 31.9532 23.283 31.8844 23.7908Z" fill="#9999FF"/>
</g>
<defs>
<clipPath id="clip0_3394_970">
<rect width="49.16" height="48" fill="white"/>
</clipPath>
</defs>
</svg>
