<svg width="48" height="48" viewBox="0 0 48 48" fill="none" xmlns="http://www.w3.org/2000/svg">
<path d="M25 25.7992C25.0625 24.7123 25.6056 23.7527 26.4275 23.0744C27.2328 22.4077 28.3139 22 29.5009 22C30.6818 22 31.7626 22.4074 32.5668 23.0744C33.39 23.7527 33.9298 24.7123 33.9943 25.7992C34.0568 26.9139 33.598 27.9542 32.7958 28.7247C31.9739 29.5062 30.8108 30 29.5009 30C28.19 30 27.0217 29.5093 26.205 28.7247C25.3998 27.9545 24.942 26.9198 25.0062 25.8044L25 25.7992Z" fill="white"/>
<path d="M17.4245 28.0662C17.432 28.5161 17.5743 29.3916 17.7858 30.073C18.2326 31.5193 18.9909 32.8574 20.0409 34.03C21.1199 35.2402 22.4512 36.2133 23.9855 36.9058C25.5986 37.6295 27.3496 38 29.1665 38C30.9834 37.9976 32.7344 37.6205 34.3472 36.8882C35.8815 36.1883 37.2133 35.2164 38.2918 33.9996C39.3474 32.8141 40.1033 31.477 40.5472 30.0296C40.7695 29.3107 40.9116 28.5685 40.9709 27.8171C41.0261 27.088 41.0027 26.3521 40.901 25.6162C40.7021 24.1982 40.2118 22.8391 39.4621 21.628C38.7784 20.5032 37.8907 19.5247 36.8351 18.6972L36.8383 18.6961L26.2252 10.4276C26.2157 10.42 26.2072 10.4124 26.1976 10.4059C25.5019 9.86326 24.3265 9.86543 23.5653 10.4081C22.7912 10.9586 22.702 11.8676 23.391 12.4398L23.3878 12.442L27.819 16.0968L14.3281 16.1106H14.3101C13.1952 16.1117 12.1216 16.853 11.9115 17.7946C11.6937 18.749 12.452 19.5456 13.6147 19.5456L13.6125 19.5499L20.4487 19.5369L8.21664 29.0208C8.20176 29.0327 8.18476 29.0446 8.16989 29.0566C7.0184 29.9494 6.64679 31.4391 7.37195 32.3753C8.10986 33.3299 9.67386 33.3364 10.8376 32.3807L17.4936 26.8486C17.4936 26.8486 17.3958 27.5962 17.4043 28.0404L17.4245 28.0662ZM34.5733 30.5649C33.2005 31.982 31.2753 32.7902 29.2005 32.7902C27.1204 32.7935 25.1951 31.9993 23.8221 30.5834C23.1511 29.8898 22.6595 29.0999 22.3537 28.2548C22.0548 27.4232 21.9396 26.5345 22.0161 25.6522C22.0888 24.7914 22.3404 23.9562 22.754 23.2022C23.1543 22.4666 23.7076 21.7982 24.385 21.2326C25.7219 20.1326 27.4184 19.5304 29.1928 19.5304C30.9749 19.5282 32.6717 20.1196 34.0086 21.2206C34.6859 21.783 35.2371 22.4482 35.6395 23.1838C36.0541 23.9377 36.3053 24.7735 36.3764 25.6349C36.4519 26.5168 36.3366 27.4049 36.0387 28.2364C35.7341 29.088 35.2413 29.8778 34.569 30.5714L34.5733 30.5649Z" fill="white"/>
</svg>
