<svg width="48" height="48" viewBox="0 0 48 48" fill="none" xmlns="http://www.w3.org/2000/svg">
<g clip-path="url(#clip0_3394_981)">
<path d="M24.8745 26.262C24.9645 24.6713 25.7471 23.2669 26.9314 22.2743C28.0916 21.2985 29.6494 20.7019 31.3598 20.7019C33.0611 20.7019 34.6185 21.2982 35.7773 22.2743C36.9634 23.2669 37.7411 24.6713 37.8341 26.262C37.9241 27.8933 37.263 29.4158 36.1073 30.5434C34.923 31.6872 33.2471 32.4098 31.3598 32.4098C29.4709 32.4098 27.7875 31.6917 26.6108 30.5434C25.4505 29.4162 24.7909 27.9019 24.8835 26.2695L24.8745 26.262Z" fill="#235785"/>
<path d="M14.717 29.6257C14.7275 30.2482 14.9285 31.4594 15.227 32.4022C15.8577 34.4032 16.9284 36.2546 18.4107 37.8768C19.934 39.5512 21.8135 40.8974 23.9795 41.8556C26.2569 42.8568 28.7289 43.3694 31.2939 43.3694C33.8589 43.3661 36.3309 42.8444 38.6079 41.8312C40.7739 40.8629 42.6541 39.5182 44.1766 37.8348C45.6669 36.1946 46.7341 34.3447 47.3607 32.3422C47.6745 31.3475 47.8752 30.3207 47.9589 29.2811C48.0369 28.2723 48.0039 27.2542 47.8602 26.2361C47.5795 24.2742 46.8872 22.3939 45.8289 20.7183C44.8636 19.1621 43.6104 17.8083 42.1201 16.6634L42.1246 16.6619L27.1415 5.22218C27.128 5.21168 27.116 5.20118 27.1025 5.19218C26.1204 4.44143 24.461 4.44443 23.3862 5.19518C22.2935 5.95681 22.1675 7.21456 23.1402 8.00618L23.1357 8.00918L29.3915 13.0657L10.3456 13.0848H10.3201C8.74623 13.0863 7.23048 14.1119 6.93386 15.4147C6.62636 16.7351 7.69698 17.8372 9.33836 17.8372L9.33536 17.8432L18.9864 17.8252L1.71761 30.9464C1.69661 30.9629 1.67261 30.9794 1.65161 30.9959C0.0259809 32.2312 -0.498644 34.2922 0.525106 35.5874C1.56686 36.9082 3.77486 36.9172 5.41773 35.5949L14.8145 27.9412C14.8145 27.9412 14.6765 28.9754 14.6885 29.5901L14.717 29.6257ZM38.927 33.0828C36.989 35.0433 34.271 36.1616 31.3419 36.1616C28.4052 36.1661 25.6872 35.0673 23.7489 33.1083C22.8016 32.1487 22.1075 31.0559 21.6759 29.8867C21.2539 28.7361 21.0911 27.5066 21.1992 26.2859C21.3019 25.0949 21.657 23.9394 22.241 22.8963C22.8061 21.8786 23.5872 20.9538 24.5435 20.1712C26.4309 18.6494 28.826 17.8162 31.331 17.8162C33.8469 17.8132 36.2424 18.6314 38.1297 20.1547C39.086 20.9328 39.8641 21.8531 40.4322 22.8708C41.0175 23.9138 41.3722 25.0702 41.4725 26.2619C41.5791 27.4821 41.4164 28.7108 40.9959 29.8612C40.5657 31.0394 39.8701 32.1322 38.921 33.0918L38.927 33.0828Z" fill="#E87500"/>
</g>
<defs>
<clipPath id="clip0_3394_981">
<rect width="48" height="48" fill="white"/>
</clipPath>
</defs>
</svg>
