<svg width="48" height="48" viewBox="0 0 48 48" fill="none" xmlns="http://www.w3.org/2000/svg">
<path d="M19.625 40.6875C22.6692 40.6875 25.125 38.2317 25.125 35.1875V29.6875H19.625C16.5808 29.6875 14.125 32.1433 14.125 35.1875C14.125 38.2317 16.5808 40.6875 19.625 40.6875Z" fill="white"/>
<path d="M14.125 24.1875C14.125 21.1433 16.5808 18.6875 19.625 18.6875H25.125V29.6875H19.625C16.5808 29.6875 14.125 27.2317 14.125 24.1875Z" fill="white"/>
<path d="M14.125 13.1875C14.125 10.1433 16.5808 7.6875 19.625 7.6875H25.125V18.6875H19.625C16.5808 18.6875 14.125 16.2317 14.125 13.1875Z" fill="white"/>
<path d="M25.125 7.6875H30.625C33.6692 7.6875 36.125 10.1433 36.125 13.1875C36.125 16.2317 33.6692 18.6875 30.625 18.6875H25.125V7.6875Z" fill="white"/>
<path d="M36.125 24.1875C36.125 27.2317 33.6692 29.6875 30.625 29.6875C27.5808 29.6875 25.125 27.2317 25.125 24.1875C25.125 21.1433 27.5808 18.6875 30.625 18.6875C33.6692 18.6875 36.125 21.1433 36.125 24.1875Z" fill="white"/>
</svg>
