<svg width="50" height="48" viewBox="0 0 50 48" fill="none" xmlns="http://www.w3.org/2000/svg">
<path d="M17.8539 12.537V33.5406C17.8539 33.7605 17.755 33.8705 17.5571 33.8705H13.5673C13.3912 33.8705 13.3033 33.7605 13.3037 33.5406V12.537C13.3037 12.3612 13.4026 12.2733 13.6004 12.2732H17.5901C17.6237 12.2684 17.6578 12.271 17.6903 12.2808C17.7227 12.2906 17.7526 12.3074 17.7779 12.3299C17.8032 12.3524 17.8233 12.3802 17.8368 12.4113C17.8503 12.4424 17.8569 12.476 17.856 12.5099L17.8539 12.537ZM29.8704 34.198L29.6581 34.2001C28.1405 34.2233 26.6367 33.9079 25.2563 33.277C23.9702 32.6818 22.8952 31.7102 22.1733 30.4907C21.444 29.2793 21.0705 27.7695 21.0528 25.9614L21.0523 25.8251C21.0399 24.3118 21.4266 22.8219 22.1735 21.5057C22.9222 20.2009 24.0141 19.1263 25.3306 18.3985L25.4377 18.3402C26.8662 17.5489 28.5918 17.1532 30.6144 17.1532L30.6571 17.1534L30.7517 17.1555L30.8588 17.1597L30.9785 17.1659L31.1104 17.1741L31.2546 17.1847L31.5804 17.2114L31.6695 17.2191V10.7237C31.6695 10.57 31.7354 10.493 31.8672 10.4927H36.0219C36.0488 10.4889 36.0762 10.4913 36.1019 10.4999C36.1277 10.5085 36.1511 10.5229 36.1703 10.5421C36.1895 10.5613 36.2039 10.5847 36.2125 10.6105C36.2211 10.6362 36.2235 10.6636 36.2197 10.6905V30.1775C36.221 30.5847 36.2375 30.9916 36.2692 31.3975L36.3003 31.8226L36.3278 32.2183L36.3516 32.5844C36.3557 32.6529 36.339 32.7211 36.3037 32.7799C36.2684 32.8388 36.2162 32.8856 36.1538 32.9143C35.082 33.3612 33.9656 33.6928 32.8236 33.9033C31.8491 34.0833 30.8614 34.1819 29.8706 34.198M31.6697 30.1115V21.11C31.4915 21.0617 31.3095 21.0286 31.1257 21.0111C30.9011 20.9884 30.6755 20.9774 30.4497 20.978C29.6494 20.9702 28.8588 21.1508 28.1417 21.5057C27.4432 21.8531 26.8468 22.3757 26.4106 23.0225C25.9598 23.6818 25.7344 24.5501 25.7346 25.6273C25.7186 26.346 25.836 27.0615 26.0807 27.7374C26.28 28.2821 26.595 28.7771 27.0041 29.1884C27.3956 29.5667 27.8697 29.8489 28.389 30.0126C28.9374 30.1901 29.5106 30.2792 30.087 30.2766C30.3946 30.2766 30.6804 30.2655 30.9443 30.2434C31.1548 30.2275 31.3635 30.1928 31.5679 30.1397L31.6697 30.1115Z" fill="white"/>
</svg>
