<svg width="48" height="48" viewBox="0 0 48 48" fill="none" xmlns="http://www.w3.org/2000/svg">
<g clip-path="url(#clip0_3394_958)">
<path d="M8.50012 0.600098H39.4999C44.2001 0.600098 48 4.39997 48 9.10022V38.9C48 43.6002 44.2001 47.4001 39.4999 47.4001H8.50012C3.79987 47.4001 0 43.6002 0 38.9V9.10022C0 4.39997 3.79987 0.600098 8.50012 0.600098Z" fill="#001E36"/>
<path d="M17.1999 12.4998C16.5999 12.4998 15.9999 12.4998 15.3801 12.52C14.7598 12.5399 14.1797 12.5399 13.6397 12.5601C13.0997 12.58 12.5998 12.58 12.1198 12.5999C11.6597 12.6198 11.3398 12.6198 10.9997 12.6198C10.8598 12.6198 10.7998 12.6996 10.7998 12.8399V33.4199C10.7998 33.5999 10.8797 33.6801 11.0398 33.6801H14.9199C15.0598 33.6599 15.1599 33.5399 15.1397 33.4V26.98C15.5196 26.98 15.7997 26.98 15.9999 26.9999C16.1998 27.0198 16.5197 27.0198 16.9997 27.0198C18.6399 27.0198 20.1399 26.8398 21.4997 26.3399C22.7998 25.8599 23.9199 25.0199 24.7198 23.8998C25.5198 22.7798 25.9198 21.3598 25.9198 19.6398C25.9198 18.7398 25.7601 17.8799 25.4601 17.0399C25.1422 16.1841 24.6442 15.4066 23.9998 14.7599C23.2392 14.021 22.3237 13.4607 21.3197 13.1196C20.1996 12.6996 18.8398 12.4998 17.1999 12.4998ZM17.6462 16.4391C18.3587 16.4526 19.0524 16.5771 19.6997 16.8396C20.2798 17.0598 20.7598 17.4599 21.0999 17.9796C21.4189 18.5175 21.5785 19.135 21.5601 19.7601C21.5601 20.6399 21.3598 21.3201 20.9398 21.82C20.4996 22.3199 19.9397 22.7001 19.2999 22.8801C18.5597 23.1201 17.7797 23.2398 16.9997 23.2398H15.9396C15.6996 23.2398 15.4401 23.2199 15.1599 23.2V16.48C15.2998 16.4598 15.5799 16.4399 15.9801 16.4601C16.3599 16.4399 16.8197 16.4399 17.3398 16.4399C17.4423 16.4374 17.5444 16.4371 17.6462 16.4391ZM34.4199 17.4603C32.9998 17.4603 31.8197 17.68 30.8799 18.16C30.0201 18.5601 29.2798 19.1999 28.7799 19.9998C28.3401 20.74 28.0997 21.5598 28.0997 22.42C28.0826 23.1275 28.2406 23.8283 28.5598 24.46C28.9338 25.1326 29.4532 25.7134 30.0801 26.1599C30.9599 26.7616 31.9146 27.2457 32.9199 27.5999C33.8998 27.9798 34.5598 28.2798 34.8801 28.5396C35.1999 28.7999 35.3601 29.0598 35.3601 29.3399C35.3601 29.6999 35.1399 30.04 34.8201 30.1799C34.4601 30.3599 33.9201 30.46 33.1599 30.46C32.3601 30.46 31.5598 30.3599 30.7997 30.16C29.9269 29.9651 29.0901 29.6344 28.3198 29.1801C28.2598 29.14 28.1998 29.1201 28.1398 29.1603C28.0798 29.2 28.0599 29.2799 28.0599 29.3399V32.8199C28.0401 32.98 28.1398 33.1199 28.2801 33.1998C28.9286 33.5027 29.6147 33.718 30.3201 33.8399C31.2201 34.0199 32.1197 34.0998 33.0396 34.0998C34.4796 34.0998 35.6799 33.88 36.6598 33.46C37.5598 33.1 38.3398 32.4801 38.8997 31.6799C39.424 30.8932 39.6961 29.9653 39.6797 29.02C39.6994 28.3059 39.5414 27.5981 39.2199 26.9601C38.8397 26.2799 38.2997 25.72 37.6397 25.3C36.6741 24.6937 35.6404 24.2035 34.5598 23.8398C34.0773 23.64 33.6035 23.4198 33.1397 23.1798C32.8798 23.0399 32.6398 22.8599 32.4598 22.6398C32.3398 22.4796 32.2599 22.3 32.2599 22.12C32.2599 21.94 32.3199 21.7401 32.4197 21.58C32.5599 21.3801 32.7797 21.2399 33.0396 21.1799C33.4198 21.0801 33.8398 21.0198 34.2396 21.0396C34.9997 21.0396 35.7396 21.1398 36.4798 21.2999C37.1601 21.4398 37.7998 21.6599 38.3998 21.9801C38.4797 22.0199 38.5798 22.0199 38.7598 21.9801C38.7911 21.957 38.8164 21.9268 38.8338 21.892C38.8512 21.8572 38.8601 21.8188 38.8599 21.7799V18.52C38.8599 18.4398 38.8397 18.3599 38.8198 18.28C38.7797 18.2001 38.6998 18.1199 38.6199 18.1C38.0683 17.8745 37.4903 17.7199 36.8998 17.6399C36.0786 17.5203 35.2498 17.4605 34.4199 17.4603Z" fill="#31A8FF"/>
</g>
<defs>
<clipPath id="clip0_3394_958">
<rect width="48" height="48" fill="white"/>
</clipPath>
</defs>
</svg>
