<svg width="50" height="48" viewBox="0 0 50 48" fill="none" xmlns="http://www.w3.org/2000/svg">
<path d="M11.6777 33.6076V12.5336C11.6777 12.3902 11.7392 12.3084 11.8826 12.3084L12.1798 12.3079L12.4098 12.3059L12.5721 12.3029L12.7449 12.2984L12.9305 12.2919L13.0294 12.2879C13.2137 12.2802 13.4009 12.2754 13.592 12.2714L14.1785 12.2591C14.2452 12.2575 14.3125 12.2558 14.3803 12.2537L14.5858 12.247C14.7701 12.2403 14.959 12.2352 15.1526 12.2316L15.7464 12.2211L16.1575 12.212L16.3677 12.2059C16.7909 12.1925 17.205 12.1879 17.6161 12.1863L18.2313 12.1855C19.9107 12.1855 21.3033 12.3902 22.4503 12.8203C23.4783 13.1695 24.4157 13.7432 25.1945 14.4997C25.8543 15.1619 26.3642 15.9581 26.6896 16.8344C26.9968 17.6946 27.1606 18.5753 27.1606 19.4969C27.1606 21.2582 26.751 22.7123 25.9318 23.8591C25.1125 25.006 23.9657 25.8661 22.6346 26.3576C21.2883 26.8526 19.8082 27.0412 18.194 27.0533H17.6086L17.3807 27.051L17.2346 27.0475L17.1486 27.0439L17.0714 27.0392L17.0025 27.0335C16.9583 27.0292 16.914 27.0259 16.8696 27.0235L16.7698 27.0191L16.6603 27.0162L16.4777 27.0137L16.122 27.0129V33.587C16.1423 33.7304 16.04 33.8533 15.8966 33.8739H11.9235C11.7597 33.8739 11.6777 33.7919 11.6777 33.6076ZM16.1423 16.2609V23.1422L16.3831 23.1595C16.5687 23.1737 16.7548 23.1817 16.941 23.1833H18.0266C18.8253 23.1833 19.624 23.0604 20.3817 22.8147C21.0372 22.6303 21.6105 22.2412 22.0611 21.7291C22.4912 21.2172 22.696 20.5208 22.696 19.6198C22.7153 18.9798 22.5518 18.3475 22.2249 17.7969C21.8914 17.2868 21.426 16.8894 20.8651 16.6588L20.7914 16.6296C20.0336 16.3224 19.2143 16.1995 18.3747 16.22L17.9012 16.2206L17.6787 16.222L17.4662 16.2248L17.2644 16.2295C17.1659 16.232 17.0718 16.2357 16.9821 16.2406C16.9381 16.2384 16.8941 16.2366 16.85 16.2352L16.7273 16.2325L16.6697 16.2321L16.5611 16.2327L16.4624 16.2354L16.4167 16.2373L16.3328 16.2421L16.259 16.2479L16.2258 16.251L16.1677 16.2577L16.1423 16.2609ZM30.0278 17.4488H33.6118C33.8052 17.4488 33.9622 17.5767 34.0308 17.7463L34.0419 17.7766C34.1033 17.9404 34.1442 18.1041 34.1648 18.2885C34.2057 18.4933 34.2468 18.7185 34.2671 18.9234L34.2844 19.1215C34.2978 19.2907 34.3082 19.4706 34.3082 19.6607C34.8947 18.9759 35.5981 18.4007 36.3856 17.9617L36.4995 17.8995C37.4416 17.3669 38.527 17.1007 39.6124 17.1007C39.7558 17.0802 39.8787 17.1825 39.8992 17.326V21.4015C39.8992 21.5653 39.7967 21.6268 39.5715 21.6268C38.8834 21.6076 38.1776 21.66 37.5037 21.8001L37.3597 21.8316C36.7657 21.9545 36.1923 22.1388 35.6393 22.3846C35.2502 22.5689 34.8815 22.8147 34.5949 23.1422V33.587C34.5949 33.7919 34.5129 33.8739 34.3285 33.8739H30.2941C30.1303 33.8942 29.9869 33.7919 29.9663 33.6281V22.2003C29.9663 21.7087 29.9663 21.1967 29.946 20.6643L29.9337 20.2649L29.9172 19.4662C29.9141 19.3331 29.91 19.1999 29.9049 19.0668C29.9049 18.5957 29.864 18.1452 29.8231 17.6741C29.8025 17.5717 29.864 17.4694 29.9663 17.4488C29.9663 17.4314 29.9965 17.4289 30.018 17.4412L30.0278 17.4488Z" fill="white"/>
</svg>
